<svg xmlns="http://www.w3.org/2000/svg" width="400" height="600" viewBox="0 0 400 600">
  <defs>
    <linearGradient id="bg" x1="0%" y1="0%" x2="0%" y2="100%">
      <stop offset="0%" style="stop-color:#0a0a22"/>
      <stop offset="100%" style="stop-color:#160a1c"/>
    </linearGradient>
  </defs>
  <rect width="400" height="600" fill="url(#bg)"/>

  <!-- ビルのモチーフ -->
  <rect x="165" y="120" width="70" height="150" fill="none" stroke="#c4a35a" stroke-width="1.2" opacity="0.4"/>
  <!-- 窓 -->
  <rect x="175" y="135" width="12" height="10" fill="none" stroke="#c4a35a" stroke-width="0.6" opacity="0.3"/>
  <rect x="195" y="135" width="12" height="10" fill="none" stroke="#c4a35a" stroke-width="0.6" opacity="0.3"/>
  <rect x="215" y="135" width="12" height="10" fill="none" stroke="#c4a35a" stroke-width="0.6" opacity="0.3"/>
  <rect x="175" y="155" width="12" height="10" fill="none" stroke="#c4a35a" stroke-width="0.6" opacity="0.3"/>
  <rect x="195" y="155" width="12" height="10" fill="none" stroke="#c4a35a" stroke-width="0.6" opacity="0.3"/>
  <rect x="215" y="155" width="12" height="10" fill="none" stroke="#c4a35a" stroke-width="0.6" opacity="0.3"/>
  <!-- 地下のナイフ -->
  <line x1="200" y1="275" x2="200" y2="310" stroke="#c4a35a" stroke-width="1.2" opacity="0.6"/>
  <path d="M195,280 L200,270 L205,280" fill="none" stroke="#c4a35a" stroke-width="1" opacity="0.6"/>
  <!-- 血痕 -->
  <circle cx="200" cy="315" r="3" fill="none" stroke="#c4a35a" stroke-width="0.8" opacity="0.4"/>
  <circle cx="208" cy="320" r="2" fill="none" stroke="#c4a35a" stroke-width="0.6" opacity="0.3"/>

  <text x="200" y="375" font-family="serif" font-size="22" fill="#e8e6e0" text-anchor="middle">ネオアルカディア事件</text>
  <text x="200" y="415" font-family="serif" font-size="15" fill="#8888a0" text-anchor="middle">みかん（監修：りんご）</text>
  <line x1="120" y1="435" x2="280" y2="435" stroke="#c4a35a" stroke-width="0.5" opacity="0.4"/>
</svg>
